<?xml version="1.0" encoding="UTF-8" standalone="no"?>
<!-- Created with Inkscape (http://www.inkscape.org/) -->

<svg
   id="svg2816"
   version="1.1"
   inkscape:version="1.1.2 (0a00cf5339, 2022-02-04)"
   width="94"
   height="128"
   sodipodi:docname="pin-red.svg"
   xmlns:inkscape="http://www.inkscape.org/namespaces/inkscape"
   xmlns:sodipodi="http://sodipodi.sourceforge.net/DTD/sodipodi-0.dtd"
   xmlns="http://www.w3.org/2000/svg"
   xmlns:svg="http://www.w3.org/2000/svg"
   xmlns:rdf="http://www.w3.org/1999/02/22-rdf-syntax-ns#"
   xmlns:cc="http://creativecommons.org/ns#"
   xmlns:dc="http://purl.org/dc/elements/1.1/">
  <metadata
     id="metadata2822">
    <rdf:RDF>
      <cc:Work
         rdf:about="">
        <dc:format>image/svg+xml</dc:format>
        <dc:type
           rdf:resource="http://purl.org/dc/dcmitype/StillImage" />
      </cc:Work>
    </rdf:RDF>
  </metadata>
  <defs
     id="defs2820">
    <inkscape:perspective
       sodipodi:type="inkscape:persp3d"
       inkscape:vp_x="0 : 0.5 : 1"
       inkscape:vp_y="0 : 1000 : 0"
       inkscape:vp_z="1 : 0.5 : 1"
       inkscape:persp3d-origin="0.5 : 0.33333333 : 1"
       id="perspective2824" />
  </defs>
  <sodipodi:namedview
     pagecolor="#ffffff"
     bordercolor="#666666"
     borderopacity="1"
     objecttolerance="10"
     gridtolerance="10"
     guidetolerance="10"
     inkscape:pageopacity="0"
     inkscape:pageshadow="2"
     inkscape:window-width="1920"
     inkscape:window-height="958"
     id="namedview2818"
     showgrid="false"
     inkscape:zoom="2"
     inkscape:cx="-94.5"
     inkscape:cy="28.25"
     inkscape:window-x="0"
     inkscape:window-y="27"
     inkscape:window-maximized="1"
     inkscape:current-layer="svg2816"
     inkscape:pagecheckerboard="0" />
  <path
     sodipodi:type="arc"
     style="opacity:0.340164;fill:#000000;fill-opacity:0;fill-rule:nonzero;stroke:none"
     id="path4131"
     sodipodi:cx="3.8455679"
     sodipodi:cy="1.9200666"
     sodipodi:rx="26.010695"
     sodipodi:ry="20.991087"
     d="M -1.5784599,22.449682 A 26.010695,20.991087 0 0 1 -21.627255,-2.3266818 26.010695,20.991087 0 0 1 8.9458779,-18.663518 26.010695,20.991087 0 0 1 29.383207,5.9052313 26.010695,20.991087 0 0 1 -0.9302004,22.554296"
     sodipodi:start="1.7808687"
     sodipodi:end="1.7554518"
     sodipodi:open="true"
     sodipodi:arc-type="arc" />
  <path
     sodipodi:type="arc"
     style="fill:#000080;fill-opacity:0;fill-rule:nonzero;stroke:none"
     id="path4135"
     sodipodi:cx="-9.8442745"
     sodipodi:cy="56.109013"
     sodipodi:rx="16.655972"
     sodipodi:ry="11.750445"
     d="M -13.317556,67.601134 A 16.655972,11.750445 0 0 1 -26.155819,53.731757 16.655972,11.750445 0 0 1 -6.5782865,44.58668 16.655972,11.750445 0 0 1 6.5087756,58.339838 16.655972,11.750445 0 0 1 -12.902442,67.659695"
     sodipodi:start="1.7808687"
     sodipodi:end="1.7554518"
     sodipodi:open="true"
     sodipodi:arc-type="arc" />
  <path
     sodipodi:type="arc"
     style="fill:#b72c2c;fill-opacity:1;fill-rule:nonzero;stroke:none"
     id="path4149"
     sodipodi:cx="1.2216829"
     sodipodi:cy="1.0074232"
     sodipodi:rx="33.426235"
     sodipodi:ry="34.452595"
     d="M -5.7487127,34.702606 A 33.426235,34.452595 0 0 1 -31.513335,-5.9627496 33.426235,34.452595 0 0 1 7.77607,-32.776339 33.426235,34.452595 0 0 1 34.039997,7.5482595 33.426235,34.452595 0 0 1 -4.9156371,34.874309"
     sodipodi:start="1.7808687"
     sodipodi:end="1.7554518"
     sodipodi:open="true"
     sodipodi:arc-type="arc" />
  <path
     sodipodi:type="arc"
     style="fill:#ffffff;fill-opacity:1;fill-rule:nonzero;stroke:none"
     id="path4184"
     sodipodi:cx="0.7711584"
     sodipodi:cy="0.6526944"
     sodipodi:rx="22.105564"
     sodipodi:ry="22.589687"
     d="M -3.83853,22.745766 A 22.105564,22.589687 0 0 1 -20.877287,-3.91747 22.105564,22.589687 0 0 1 5.1057304,-21.498457 22.105564,22.589687 0 0 1 22.47469,4.9413539 22.105564,22.589687 0 0 1 -3.2875973,22.858347"
     sodipodi:start="1.7808687"
     sodipodi:end="1.7554518"
     sodipodi:open="true"
     sodipodi:arc-type="arc" />
</svg>
